<?xml version="1.0" encoding="UTF-8"?>
<svg version="1.1" xmlns="http://www.w3.org/2000/svg" width="512" height="512">
<path d="M0 0 C0.90202148 0.00215515 1.80404297 0.0043103 2.73339844 0.00653076 C16.65149561 0.05980135 30.25758576 0.5293878 43.9375 3.3125 C44.94087402 3.51649414 45.94424805 3.72048828 46.97802734 3.93066406 C94.12517917 13.84650466 134.10804154 36.29251765 168.9375 69.3125 C169.69160156 70.0240625 170.44570313 70.735625 171.22265625 71.46875 C176.61073652 76.69615193 181.28370006 82.4311535 185.9375 88.3125 C187.11119141 89.76076172 187.11119141 89.76076172 188.30859375 91.23828125 C215.06370692 124.92831975 231.42984736 165.73682922 236.9375 208.3125 C237.0317627 209.00811035 237.12602539 209.7037207 237.22314453 210.42041016 C244.48569214 271.57391928 226.16618401 334.26865569 188.6237793 382.74047852 C185.26181133 386.99932403 181.70132302 391.04869486 178.02734375 395.0390625 C176.07878585 397.15880212 174.18992667 399.31733469 172.3125 401.5 C165.7990853 408.93540491 158.64958163 415.1342538 150.9375 421.3125 C150.14472656 421.9725 149.35195313 422.6325 148.53515625 423.3125 C118.45503298 448.13736047 81.12622284 464.30614232 42.9375 471.3125 C41.60307861 471.55806641 41.60307861 471.55806641 40.24169922 471.80859375 C-20.42115799 482.37194071 -84.83509527 467.49987381 -135.0625 432.1875 C-146.46044662 424.01639307 -156.89691137 414.94996128 -167.0625 405.3125 C-168.19365234 404.24515625 -168.19365234 404.24515625 -169.34765625 403.15625 C-174.73573652 397.92884807 -179.40870006 392.1938465 -184.0625 386.3125 C-185.23619141 384.86423828 -185.23619141 384.86423828 -186.43359375 383.38671875 C-193.7454534 374.17962508 -200.02318816 364.39256529 -206.0625 354.3125 C-206.63097656 353.36600586 -206.63097656 353.36600586 -207.2109375 352.40039062 C-222.38221737 326.70617416 -231.05243879 296.71676546 -235.0625 267.3125 C-235.21609985 266.22328247 -235.21609985 266.22328247 -235.37280273 265.11206055 C-238.36868949 240.31860778 -237.14894385 213.68785055 -232.0625 189.3125 C-231.88589844 188.43513184 -231.70929688 187.55776367 -231.52734375 186.65380859 C-224.59046775 153.13199761 -209.57457315 119.99687489 -188.0625 93.3125 C-187.32386719 92.38308594 -186.58523437 91.45367187 -185.82421875 90.49609375 C-173.99561745 75.80738161 -161.10574841 61.76050665 -146.0625 50.3125 C-145.12591553 49.59392822 -145.12591553 49.59392822 -144.17041016 48.86083984 C-102.4701981 17.07840905 -52.44883743 -0.22607258 0 0 Z " fill="#5B2C91" transform="translate(255.0625,18.6875)"/>
<path d="M0 0 C1.97432079 -0.00083043 3.94864149 -0.00329636 5.92295837 -0.00730896 C10.04235877 -0.01015347 14.16121141 0.00440326 18.28051758 0.03198242 C23.53466035 0.06608503 28.78782628 0.0600264 34.04201603 0.04131985 C38.11295068 0.03070299 42.18366181 0.03972973 46.25457573 0.05470467 C48.19086479 0.05985107 50.12717753 0.0594482 52.06346321 0.05315971 C67.42642735 0.02198098 78.77713068 1.55041976 90.3984375 12.37109375 C98.63033992 20.90394744 101.22953286 30.93122679 101.16210938 42.5078125 C101.14337769 43.52319092 101.14337769 43.52319092 101.12426758 44.55908203 C101.08940485 46.65529651 101.10381209 48.74740156 101.12304688 50.84375 C101.11616041 52.18881991 101.10649892 53.53387914 101.09375 54.87890625 C101.08287354 56.0803125 101.07199707 57.28171875 101.06079102 58.51953125 C100.41274382 62.29689012 99.4821529 63.26367387 96.52734375 65.62890625 C94.08298111 66.12109756 94.08298111 66.12109756 91.30084229 66.10992432 C90.24357437 66.11542297 89.18630646 66.12092163 88.09700012 66.12658691 C86.94253891 66.11220581 85.7880777 66.09782471 84.59863281 66.08300781 C82.76896217 66.08388397 82.76896217 66.08388397 80.90232849 66.08477783 C77.56137448 66.08246919 74.22141026 66.06241625 70.88063145 66.034482 C67.38795961 66.00946931 63.89527444 66.00712647 60.40252686 66.00238037 C53.7903719 65.98995013 47.17848163 65.95712813 40.5664432 65.91698241 C33.03811515 65.87226599 25.50977442 65.85027803 17.98134661 65.83020067 C2.49652572 65.78839533 -12.98803113 65.71804264 -28.47265625 65.62890625 C-28.34638714 67.23370952 -28.21040297 68.8377504 -28.0703125 70.44140625 C-27.99562744 71.33472656 -27.92094238 72.22804688 -27.84399414 73.1484375 C-27.3913877 76.17176518 -26.24465226 78.16352049 -24.47265625 80.62890625 C-24.47265625 81.28890625 -24.47265625 81.94890625 -24.47265625 82.62890625 C-23.85390625 82.93828125 -23.23515625 83.24765625 -22.59765625 83.56640625 C-21.22265625 84.25390625 -19.84765625 84.94140625 -18.47265625 85.62890625 C-15.81940859 85.737637 -13.19200935 85.78622677 -10.53808594 85.79003906 C-9.30852425 85.79748642 -9.30852425 85.79748642 -8.05412292 85.80508423 C-5.33425057 85.81972402 -2.61443658 85.82651168 0.10546875 85.83203125 C1.99395754 85.83778223 3.88244631 85.84353997 5.77093506 85.8493042 C9.73547641 85.85982006 13.69999744 85.86565856 17.66455078 85.86914062 C22.7399211 85.8746195 27.81502235 85.8986321 32.89030838 85.92711258 C36.79370908 85.94575714 40.69704529 85.95094558 44.60048676 85.9524765 C46.47115293 85.95550063 48.34181803 85.96352105 50.21244049 85.97666168 C52.83356524 85.9937564 55.45403711 85.99183337 58.07519531 85.98535156 C58.84529434 85.99456635 59.61539337 86.00378113 60.40882874 86.01327515 C65.19586276 85.97627657 68.44990358 85.13871101 72.52734375 82.62890625 C73.04603027 82.07879883 73.5647168 81.52869141 74.09912109 80.96191406 C76.14762189 79.04997998 77.61957009 79.27071522 80.37890625 79.30078125 C81.77882813 79.30851562 81.77882813 79.30851562 83.20703125 79.31640625 C84.17898438 79.33703125 85.1509375 79.35765625 86.15234375 79.37890625 C87.13203125 79.3840625 88.11171875 79.38921875 89.12109375 79.39453125 C96.37332589 79.47488839 96.37332589 79.47488839 97.52734375 80.62890625 C97.37449176 87.96580175 93.79019443 93.02431061 88.9609375 98.359375 C80.56529782 106.2290228 70.32876692 108.76727808 59.14794922 108.8059082 C58.31632767 108.8124794 57.48470612 108.8190506 56.62788391 108.82582092 C53.88343197 108.84548388 51.13903465 108.85720235 48.39453125 108.8671875 C47.45301334 108.87126303 46.51149544 108.87533855 45.54144669 108.87953758 C40.55562818 108.90037086 35.56983694 108.9146831 30.58398438 108.92407227 C25.45642701 108.9351167 20.32930595 108.96950188 15.20190239 109.00924397 C11.23997234 109.03549811 7.27814478 109.043772 3.31613541 109.04735374 C1.42725816 109.05219882 -0.46161515 109.06375285 -2.35040665 109.08239174 C-17.52268235 109.2227809 -29.05624755 107.75587616 -40.37890625 96.78125 C-48.78358059 87.82457374 -50.61572729 78.59311308 -50.7109375 66.68359375 C-50.71900925 65.71793488 -50.72708099 64.752276 -50.73539734 63.75735474 C-50.74920465 61.71488217 -50.75994174 59.67238685 -50.76782227 57.62988281 C-50.77931907 55.55657107 -50.7997342 53.4832884 -50.8293457 51.41015625 C-51.06182651 35.11831683 -50.24007935 23.11903105 -38.73046875 10.7578125 C-27.51251697 -0.06448538 -14.63431836 -0.11210846 0 0 Z " fill="#FBFAFC" transform="translate(313.47265625,201.37109375)"/>
<path d="M0 0 C1.08667969 -0.01740234 1.08667969 -0.01740234 2.1953125 -0.03515625 C7.38920421 -0.00640777 7.38920421 -0.00640777 9.70840454 1.44180298 C11.66398087 4.36881415 11.39806677 7.30436954 11.35302734 10.70458984 C11.35518753 11.44802139 11.35734772 12.19145294 11.35957336 12.95741272 C11.36266082 14.57142562 11.359053 16.18546199 11.34955978 17.79944992 C11.33583352 20.35529817 11.34225144 22.91036887 11.35440063 25.46621704 C11.38538024 32.73241236 11.38049299 39.99842809 11.36035156 47.26464844 C11.34943002 51.70979205 11.3626337 56.15435222 11.39024734 60.59941483 C11.39568655 62.29225934 11.39162735 63.98516226 11.37784958 65.67795944 C11.35878545 68.04815927 11.37020805 70.41645373 11.38818359 72.78662109 C11.37484482 73.48393845 11.36150604 74.1812558 11.34776306 74.89970398 C11.41188657 78.70793278 11.93349851 80.29146496 14.33560181 83.30883789 C17.7107847 85.92619254 19.63502579 86.01911638 23.875 86.0390625 C25.18984375 86.04550781 26.5046875 86.05195313 27.859375 86.05859375 C28.53935547 86.04812012 29.21933594 86.03764648 29.91992188 86.02685547 C31.99534681 86.00006008 34.06536676 86.02662887 36.140625 86.05859375 C37.45546875 86.05214844 38.7703125 86.04570312 40.125 86.0390625 C41.32382813 86.03342285 42.52265625 86.0277832 43.7578125 86.02197266 C47.88227308 85.198944 49.36047119 83.57228638 52 80.375 C53.49581055 77.38337889 53.14128054 74.64760416 53.15771484 71.31079102 C53.16279556 70.58380005 53.16787628 69.85680908 53.17311096 69.10778809 C53.18382122 67.52705152 53.19243883 65.94629972 53.19923019 64.36554146 C53.21100246 61.86510873 53.23045004 59.36485003 53.25234985 56.86448669 C53.31402817 49.75468716 53.36805569 42.64490558 53.40136719 35.53491211 C53.42228248 31.18824373 53.45755896 26.84189261 53.50212479 22.4954052 C53.51630914 20.83722601 53.52501271 19.17899069 53.52817917 17.52075386 C53.53307397 15.20303135 53.55619292 12.88615485 53.58349609 10.56860352 C53.59158295 9.24893082 53.5996698 7.92925812 53.60800171 6.56959534 C54 3.375 54 3.375 55.30923462 1.45030212 C58.14936221 -0.3559776 61.24626092 -0.05577838 64.5 0 C65.51513672 -0.01740234 65.51513672 -0.01740234 66.55078125 -0.03515625 C71.40136804 -0.00645455 71.40136804 -0.00645455 73.69374084 1.45426941 C75.70424592 4.41052704 75.3715022 6.96240665 75.36889648 10.50512695 C75.3745462 11.58860413 75.3745462 11.58860413 75.38031006 12.69396973 C75.3867444 14.26213089 75.3864107 15.83033105 75.38012505 17.39849281 C75.37102072 19.88321103 75.38123147 22.36717358 75.39674377 24.85185242 C75.43685638 31.9157898 75.43804923 38.97966887 75.43579102 46.04370117 C75.43573984 50.36560708 75.45494959 54.687107 75.48512459 59.0089016 C75.49593301 61.45194791 75.48382791 63.89421342 75.47129822 66.3372345 C75.48020638 67.84372725 75.49028207 69.3502137 75.50170898 70.85668945 C75.50154282 72.16668411 75.50137665 73.47667877 75.50120544 74.82637024 C76.08366866 78.9702533 77.39004967 81.14336936 80 84.375 C84.20358405 86.47679203 89.69736943 85.56085823 94.32128906 85.56030273 C96.36023992 85.56248421 98.39864525 85.58063067 100.4375 85.59960938 C101.72398437 85.60154297 103.01046875 85.60347656 104.3359375 85.60546875 C105.51720215 85.60957764 106.6984668 85.61368652 107.91552734 85.61791992 C110.9325835 85.38030944 112.56549292 85.13565166 115 83.375 C117.4188474 79.78880803 117.28664795 76.16570111 117.27124023 71.99194336 C117.27646698 71.25490677 117.28169373 70.51787018 117.28707886 69.75849915 C117.29730216 68.16198284 117.30309635 66.56543337 117.30496025 64.96888542 C117.30862543 62.44301161 117.32535429 59.91752987 117.34571838 57.39173889 C117.40112814 50.21199823 117.4318659 43.03220079 117.45629883 35.85229492 C117.47215349 31.45795808 117.50234558 27.06390186 117.54106331 22.66971016 C117.55272721 20.99477677 117.55864378 19.31979326 117.55874443 17.64481926 C117.55893601 15.30580094 117.57716522 12.96755998 117.59936523 10.62866211 C117.59478806 9.93507599 117.59021088 9.24148987 117.585495 8.52688599 C117.62786224 5.72598181 117.7107219 3.80592178 119.29457092 1.44654846 C122.26431941 -0.41939218 125.60627082 -0.05434798 129 0 C130.08667969 -0.01740234 130.08667969 -0.01740234 131.1953125 -0.03515625 C136.39284441 -0.00638762 136.39284441 -0.00638762 138.70620728 1.44676208 C140.65368106 4.34923071 140.41775708 7.24790789 140.38818359 10.62524414 C140.39606903 11.72834427 140.39606903 11.72834427 140.40411377 12.85372925 C140.41733442 15.28942009 140.40856241 17.72445851 140.3984375 20.16015625 C140.40045917 21.85827255 140.40337138 23.55638801 140.40713501 25.25450134 C140.4115624 28.81973508 140.40511968 32.3847436 140.39111328 35.94995117 C140.37411204 40.49697331 140.38380189 45.04346065 140.40183067 49.59046268 C140.41273539 53.10202468 140.40919015 56.61346262 140.4014473 60.12502861 C140.39945896 61.79978945 140.40185605 63.47456189 140.40888596 65.14930916 C140.4505297 77.87131444 139.96741842 88.5744229 131 98.375 C121.13819002 107.80803563 111.30566282 108.63799832 98.18286133 108.7800293 C96.69824809 108.80149864 95.21375759 108.8354696 93.72973633 108.88256836 C84.42355629 109.17426235 77.67375214 108.6553225 69.42016602 103.76977539 C67.18327973 102.48062666 65.55810754 101.65381373 63 101.375 C61.55803403 102.31395458 60.12063373 103.26142191 58.71826172 104.25854492 C51.18611667 109.15261985 42.42480675 108.87204448 33.77124023 108.82104492 C31.56985008 108.81252844 29.37105751 108.84138116 27.16992188 108.87304688 C14.62222403 108.93813197 6.33775607 106.48065236 -2.8671875 97.6796875 C-9.06216502 90.98548102 -11.30604016 83.5139197 -11.2746582 74.48950195 C-11.27976913 73.7229126 -11.28488007 72.95632324 -11.29014587 72.16650391 C-11.3039753 69.64868227 -11.30309104 67.13113619 -11.30078125 64.61328125 C-11.30467006 62.85784301 -11.30900512 61.1024057 -11.31376648 59.3469696 C-11.32121303 55.67618755 -11.32094748 52.00550172 -11.31567383 48.3347168 C-11.30986211 43.62682052 -11.32685857 38.91931548 -11.3500185 34.21148396 C-11.36472988 30.59042554 -11.36563143 26.96946214 -11.36250877 23.34837914 C-11.36302267 21.61200367 -11.36827312 19.87562298 -11.37832069 18.1392765 C-11.39062623 15.71669392 -11.38393092 13.2948842 -11.37231445 10.87231445 C-11.37995819 10.15381821 -11.38760193 9.43532196 -11.39547729 8.6950531 C-11.36514709 5.8404429 -11.3125282 3.84487495 -9.7071991 1.43132019 C-6.72935729 -0.41120329 -3.39068597 -0.05429924 0 0 Z " fill="#FCFBFC" transform="translate(109,201.625)"/>
<path d="M0 0 C0.83150574 -0.00525696 1.66301147 -0.01051392 2.51971436 -0.01593018 C5.26073138 -0.02910419 8.00116485 -0.02040137 10.7421875 -0.01025391 C12.65120556 -0.01227539 14.56022286 -0.01518745 16.46923828 -0.01895142 C20.4671973 -0.02337125 24.46495503 -0.01695465 28.46289062 -0.00292969 C33.58427961 0.01416196 38.70519692 0.00431895 43.8265686 -0.01364708 C47.76769557 -0.02449409 51.70871095 -0.02103435 55.64984131 -0.0132637 C57.53806616 -0.01126424 59.42630119 -0.01371206 61.31451416 -0.02070236 C63.9547403 -0.02833191 66.59420545 -0.01669172 69.234375 0 C70.40187286 -0.00910904 70.40187286 -0.00910904 71.59295654 -0.0184021 C77.16017276 0.04671335 80.1633625 1.42938186 84.41796875 4.82568359 C90.03353978 10.62989137 88.6171875 12.0779138 88.6171875 21.38818359 C53.3071875 21.38818359 17.9971875 21.38818359 -18.3828125 21.38818359 C-18.3828125 9.16596137 -18.3828125 9.16596137 -14.96484375 4.82568359 C-10.27603383 0.56523409 -6.17201716 -0.04815525 0 0 Z " fill="#592A91" transform="translate(303.3828125,223.61181640625)"/>
<path d="M0 0 C2 3 2 3 2 10 C-33.31 10 -68.62 10 -105 10 C-105 7.36 -105 4.72 -105 2 C-104.67 2 -104.34 2 -104 2 C-104 3.98 -104 5.96 -104 8 C-69.68 8 -35.36 8 0 8 C0 5.36 0 2.72 0 0 Z " fill="#52218C" transform="translate(390,235)"/>
<path d="M0 0 C0.57145752 0.24129639 1.14291504 0.48259277 1.73168945 0.73120117 C1.40168945 1.39120117 1.07168945 2.05120117 0.73168945 2.73120117 C0.07168945 2.73120117 -0.58831055 2.73120117 -1.26831055 2.73120117 C-1.53401855 3.32070557 -1.79972656 3.91020996 -2.07348633 4.51757812 C-4.08627582 8.24662641 -7.15948957 10.95007277 -10.14331055 13.91870117 C-10.76850586 14.56000977 -11.39370117 15.20131836 -12.0378418 15.86206055 C-12.95243164 16.77761719 -12.95243164 16.77761719 -13.88549805 17.71166992 C-14.43834473 18.26749756 -14.99119141 18.8233252 -15.56079102 19.39599609 C-17.45637609 20.87826015 -18.91774898 21.3221149 -21.26831055 21.73120117 C-20.40203236 15.89969006 -15.44456124 12.39509323 -11.45581055 8.41870117 C-10.22507812 7.14542969 -10.22507812 7.14542969 -8.96948242 5.84643555 C-7.77742188 4.65050781 -7.77742188 4.65050781 -6.5612793 3.43041992 C-5.83448975 2.69654053 -5.1077002 1.96266113 -4.35888672 1.20654297 C-2.26831055 -0.26879883 -2.26831055 -0.26879883 0 0 Z " fill="#582790" transform="translate(100.268310546875,78.268798828125)"/>
<path d="M0 0 C5.28 0.33 10.56 0.66 16 1 C16 1.33 16 1.66 16 2 C6.97080937 3.10366551 -2.00870746 3.15382175 -11.08862305 3.13037109 C-13.5610973 3.12500305 -16.03339056 3.13034956 -18.50585938 3.13671875 C-26.40645969 3.13969685 -34.1491615 3.0042697 -42 2 C-42 1.67 -42 1.34 -42 1 C-28.14 1 -14.28 1 0 1 C0 0.67 0 0.34 0 0 Z " fill="#8C6EAD" transform="translate(269,490)"/>
<path d="M0 0 C0.33 0.99 0.66 1.98 1 3 C0.67 3.66 0.34 4.32 0 5 C-0.99 5 -1.98 5 -3 5 C-3 5.99 -3 6.98 -3 8 C-5.8125 10.75 -5.8125 10.75 -9 13 C-9.99 12.67 -10.98 12.34 -12 12 C-8.04 8.04 -4.08 4.08 0 0 Z " fill="#694496" transform="translate(91,85)"/>
<path d="M0 0 C-2.454676 1.67228535 -4.91339674 3.3379686 -7.375 5 C-8.42300781 5.71542969 -8.42300781 5.71542969 -9.4921875 6.4453125 C-10.1625 6.89648438 -10.8328125 7.34765625 -11.5234375 7.8125 C-12.14138184 8.23144531 -12.75932617 8.65039062 -13.39599609 9.08203125 C-15 10 -15 10 -17 10 C-15.65965294 5.97895881 -13.08336295 4.83694316 -9.625 2.75 C-9.03460938 2.37359375 -8.44421875 1.9971875 -7.8359375 1.609375 C-3.3733631 -1.12445437 -3.3733631 -1.12445437 0 0 Z " fill="#6B4698" transform="translate(393,450)"/>
<path d="M0 0 C3.62613199 0.56959153 5.25517741 1.92374534 7.75 4.5625 C8.36359375 5.20316406 8.9771875 5.84382813 9.609375 6.50390625 C10.06828125 6.99761719 10.5271875 7.49132812 11 8 C10.34 8.66 9.68 9.32 9 10 C7.49702124 8.52386015 5.99768715 7.04400843 4.5 5.5625 C3.6646875 4.73878906 2.829375 3.91507812 1.96875 3.06640625 C0 1 0 1 0 0 Z " fill="#6E4B99" transform="translate(81,416)"/>
<path d="M0 0 C4.85963179 0.60745397 8.7405518 2.72758967 13 5 C10.44855176 5.93045933 9.25993522 6.08564091 6.640625 5.22265625 C5.85171875 4.83980469 5.0628125 4.45695312 4.25 4.0625 C3.45078125 3.68222656 2.6515625 3.30195312 1.828125 2.91015625 C1.22484375 2.60980469 0.6215625 2.30945312 0 2 C0 1.34 0 0.68 0 0 Z " fill="#6F4B99" transform="translate(353,40)"/>
<path d="M0 0 C1.89611434 0.14213297 3.79188394 0.28886907 5.6875 0.4375 C6.74324219 0.51871094 7.79898437 0.59992187 8.88671875 0.68359375 C11.65086297 0.96451681 14.28945741 1.40156852 17 2 C17 2.33 17 2.66 17 3 C14.6739143 3.38063221 12.33944736 3.71269945 10 4 C9.67 3.67 9.34 3.34 9 3 C7.48530552 2.76807135 5.96245438 2.58784762 4.4375 2.4375 C3.61121094 2.35371094 2.78492188 2.26992188 1.93359375 2.18359375 C1.29550781 2.12300781 0.65742188 2.06242187 0 2 C0 1.34 0 0.68 0 0 Z " fill="#76559E" transform="translate(287,21)"/>
<path d="M0 0 C0.66 0 1.32 0 2 0 C1.69381595 3.67420866 1.24228216 4.78135513 -1.5625 7.3125 C-2.366875 7.869375 -3.17125 8.42625 -4 9 C-4 4.9666466 -2.39120082 3.16482462 0 0 Z " fill="#6F499C" transform="translate(61,120)"/>
<path d="M0 0 C-1.35513665 4.06540996 -3.30796918 4.97300269 -7 7 C-9.19921875 6.609375 -9.19921875 6.609375 -11 6 C-9.54550599 4.9944239 -8.08627557 3.99569565 -6.625 3 C-5.40683594 2.1646875 -5.40683594 2.1646875 -4.1640625 1.3125 C-2 0 -2 0 0 0 Z " fill="#6D4899" transform="translate(134,53)"/>
<path d="M0 0 C-1.45044271 4.10958767 -3.51110752 7.43258745 -6 11 C-6.6875 9.375 -6.6875 9.375 -7 7 C-4.11764706 0 -4.11764706 0 0 0 Z " fill="#714D9D" transform="translate(457,381)"/>
<path d="M0 0 C2.475 0.495 2.475 0.495 5 1 C4.67 1.99 4.34 2.98 4 4 C4.66 4 5.32 4 6 4 C6 4.66 6 5.32 6 6 C6.66 6.33 7.32 6.66 8 7 C4.0521912 7 2.81491174 5.66275435 0 3 C0 2.01 0 1.02 0 0 Z " fill="#633B92" transform="translate(95,428)"/>
<path d="M0 0 C2.97 0.33 5.94 0.66 9 1 C4.89441282 3.05279359 3.19793315 3.2216942 -1.25 3.125 C-2.32765625 3.10695313 -3.4053125 3.08890625 -4.515625 3.0703125 C-5.33546875 3.04710937 -6.1553125 3.02390625 -7 3 C-7 2.67 -7 2.34 -7 2 C-3.535 1.505 -3.535 1.505 0 1 C0 0.67 0 0.34 0 0 Z " fill="#512188" transform="translate(280,488)"/>
<path d="M0 0 C0.33 0 0.66 0 1 0 C1.33 2.31 1.66 4.62 2 7 C1.34 7 0.68 7 0 7 C-0.33 10.3 -0.66 13.6 -1 17 C-1.33 17 -1.66 17 -2 17 C-1.85786703 15.10388566 -1.71113093 13.20811606 -1.5625 11.3125 C-1.48128906 10.25675781 -1.40007813 9.20101562 -1.31640625 8.11328125 C-1.03548319 5.34913703 -0.59843148 2.71054259 0 0 Z " fill="#8766AC" transform="translate(23,208)"/>
<path d="M0 0 C0.8353125 0.556875 0.8353125 0.556875 1.6875 1.125 C0.42142393 1.65729326 -0.85060412 2.17544544 -2.125 2.6875 C-2.83269531 2.97753906 -3.54039062 3.26757812 -4.26953125 3.56640625 C-6.3125 4.125 -6.3125 4.125 -9.3125 3.125 C-8.6525 3.125 -7.9925 3.125 -7.3125 3.125 C-7.3125 2.465 -7.3125 1.805 -7.3125 1.125 C-2.88173077 -1.09038462 -2.88173077 -1.09038462 0 0 Z " fill="#7957A0" transform="translate(342.3125,475.875)"/>
<path d="M0 0 C4.31392226 0.4793247 6.16569547 1.7457985 9 5 C7.68 5.33 6.36 5.66 5 6 C5 5.01 5 4.02 5 3 C3.35 2.67 1.7 2.34 0 2 C0 1.34 0 0.68 0 0 Z " fill="#6A4197" transform="translate(391,63)"/>
<path d="M0 0 C-1.32 0.33 -2.64 0.66 -4 1 C-4 1.66 -4 2.32 -4 3 C-6.31 3.33 -8.62 3.66 -11 4 C-3.77464789 -1.88732394 -3.77464789 -1.88732394 0 0 Z " fill="#75529F" transform="translate(170,36)"/>
<path d="M0 0 C2.69082872 0.17635452 5.32851446 0.61835921 8 1 C8 1.33 8 1.66 8 2 C1.565 2.495 1.565 2.495 -5 3 C-3.68 2.34 -2.36 1.68 -1 1 C-0.67 0.67 -0.34 0.34 0 0 Z " fill="#8162A5" transform="translate(290,488)"/>
<path d="M0 0 C0.66 0.33 1.32 0.66 2 1 C0.8125 3.4375 0.8125 3.4375 -1 6 C-3.6875 6.8125 -3.6875 6.8125 -6 7 C-4.02 4.69 -2.04 2.38 0 0 Z " fill="#7A59A0" transform="translate(98,78)"/>
<path d="M0 0 C4.24822374 0.47202486 6.19989709 2.96655518 9 6 C7.35 5.67 5.7 5.34 4 5 C3.67 4.01 3.34 3.02 3 2 C2.01 1.67 1.02 1.34 0 1 C0 0.67 0 0.34 0 0 Z " fill="#643C92" transform="translate(407,75)"/>
</svg>
